<svg width="26" height="26" viewBox="0 0 26 26" fill="none" xmlns="http://www.w3.org/2000/svg">
<path d="M15.9374 13L24.8957 4.06252C25.288 3.67022 25.5084 3.13812 25.5084 2.58332C25.5084 2.02852 25.288 1.49642 24.8957 1.10412C24.5034 0.711816 23.9713 0.491516 23.4165 0.491516C22.8617 0.491516 22.3297 0.711816 21.9374 1.10412L12.9999 10.0625L4.06239 1.10412C3.67009 0.711816 3.13799 0.491516 2.58319 0.491516C2.02839 0.491516 1.49629 0.711816 1.10399 1.10412C0.711693 1.49642 0.491293 2.02852 0.491293 2.58332C0.491293 3.13812 0.711693 3.67022 1.10399 4.06252L10.0624 13L1.10399 21.9375C0.908793 22.1311 0.753793 22.3616 0.647993 22.6154C0.542193 22.8693 0.487793 23.1416 0.487793 23.4166C0.487793 23.6917 0.542193 23.964 0.647993 24.2178C0.753793 24.4717 0.908793 24.7021 1.10399 24.8958C1.29769 25.0911 1.52809 25.2461 1.78199 25.3518C2.03589 25.4576 2.30819 25.5121 2.58319 25.5121C2.85819 25.5121 3.13049 25.4576 3.38439 25.3518C3.63829 25.2461 3.86869 25.0911 4.06239 24.8958L12.9999 15.9375L21.9374 24.8958C22.1311 25.0911 22.3615 25.2461 22.6153 25.3518C22.8692 25.4576 23.1415 25.5121 23.4165 25.5121C23.6916 25.5121 23.9639 25.4576 24.2177 25.3518C24.4716 25.2461 24.702 25.0911 24.8957 24.8958C25.091 24.7021 25.246 24.4717 25.3517 24.2178C25.4575 23.964 25.512 23.6917 25.512 23.4166C25.512 23.1416 25.4575 22.8693 25.3517 22.6154C25.246 22.3616 25.091 22.1311 24.8957 21.9375L15.9374 13Z" fill="#9CA3AF"/>
</svg>
